<?xml version="1.0" encoding="UTF-8" standalone="no"?><!-- Generator: Gravit.io --><svg xmlns="http://www.w3.org/2000/svg" xmlns:xlink="http://www.w3.org/1999/xlink" style="isolation:isolate" viewBox="0 0 16 16" width="16pt" height="16pt"><defs><clipPath id="_clipPath_JexcR9UBH5S2PGk3z4oDoJxP97Z8OlpN"><rect width="16" height="16"/></clipPath></defs><g clip-path="url(#_clipPath_JexcR9UBH5S2PGk3z4oDoJxP97Z8OlpN)"><clipPath id="_clipPath_46jmCclZA9YGu65IbzFL0EAZtr89ck9H"><rect x="0" y="0" width="16" height="16" transform="matrix(1,0,0,1,0,0)" fill="rgb(255,255,255)"/></clipPath><g clip-path="url(#_clipPath_46jmCclZA9YGu65IbzFL0EAZtr89ck9H)"><g><path d=" M 7.659 3.572 L 7.659 4.286 C 6.694 4.448 5.957 5.292 5.957 6.297 C 5.957 6.902 6.24 7.369 6.617 7.67 C 6.993 7.971 7.447 8.138 7.872 8.309 C 8.298 8.479 8.696 8.652 8.958 8.862 C 9.22 9.072 9.362 9.285 9.362 9.703 C 9.362 10.437 8.752 11.065 8 11.065 C 7.244 11.065 6.638 10.459 6.638 9.703 L 6.638 9.362 L 5.957 9.362 L 5.957 9.703 C 5.957 10.713 6.694 11.552 7.659 11.714 L 7.659 12.428 L 8.341 12.428 L 8.341 11.714 C 9.309 11.551 10.043 10.699 10.043 9.703 C 10.043 9.096 9.76 8.632 9.383 8.33 C 9.007 8.028 8.553 7.851 8.128 7.681 C 7.702 7.51 7.304 7.347 7.042 7.138 C 6.78 6.929 6.638 6.712 6.638 6.297 C 6.638 5.551 7.246 4.935 8 4.935 C 8.756 4.935 9.362 5.541 9.362 6.297 L 9.362 6.638 L 10.043 6.638 L 10.043 6.297 C 10.043 5.287 9.306 4.448 8.341 4.286 L 8.341 3.572 L 7.659 3.572 Z " fill="rgb(255,255,255)"/></g></g><path d=" M 14.135 5.058 C 14.141 5.077 14.143 5.097 14.143 5.117 L 14.143 15.217 L 14.143 15.217 L 14.143 15.452 L 14.143 15.513 C 14.143 15.672 14.014 15.801 13.855 15.801 L 13.794 15.801 L 13.794 15.801 L 13.62 15.801 L 13.62 15.801 L 2.291 15.801 L 2.291 15.801 L 2.289 15.801 L 2.289 15.801 L 2.142 15.801 C 1.983 15.801 1.854 15.672 1.854 15.513 L 1.854 15.366 L 1.854 15.217 L 1.854 15.217 L 1.854 0.841 L 1.854 0.841 L 1.854 0.635 L 1.854 0.635 L 1.854 0.634 L 1.854 0.43 C 1.854 0.303 1.957 0.199 2.084 0.199 L 2.289 0.199 L 2.289 0.199 L 2.289 0.199 L 2.291 0.199 L 2.291 0.199 L 2.291 0.199 L 2.398 0.199 L 2.398 0.199 L 9.284 0.199 L 9.284 0.199 L 9.504 0.199 C 9.616 0.199 9.71 0.28 9.727 0.388 C 9.762 0.408 9.794 0.432 9.823 0.462 L 14.008 4.647 C 14.123 4.762 14.17 4.916 14.135 5.058 Z  M 13.271 5.143 L 13.271 14.929 L 2.726 14.929 L 2.726 1.071 L 9.199 1.071 C 9.202 1.074 9.204 1.076 9.206 1.078 L 13.271 5.143 Z " fill-rule="evenodd" fill="rgb(255,255,255)"/></g></svg>